<?xml version="1.0" standalone="no"?>
<!DOCTYPE svg PUBLIC "-//W3C//DTD SVG 20010904//EN"
 "http://www.w3.org/TR/2001/REC-SVG-20010904/DTD/svg10.dtd">
<svg version="1.0" xmlns="http://www.w3.org/2000/svg"
 width="407.000000pt" height="407.000000pt" viewBox="0 0 407.000000 407.000000"
 preserveAspectRatio="xMidYMid meet">
<metadata>
Created by potrace 1.14, written by Peter Selinger 2001-2017
</metadata>
<g transform="translate(0.000000,407.000000) scale(0.100000,-0.100000)"
fill="#000000" stroke="none">
<path d="M2293 4044 c-79 -39 -119 -108 -115 -198 2 -47 2 -49 -16 -33 -70 64
-200 56 -272 -16 -43 -43 -49 -54 -57 -103 l-8 -48 -65 -1 c-145 -2 -240 -115
-210 -250 7 -29 4 -33 -35 -54 -123 -65 -147 -228 -49 -328 37 -37 44 -50 39
-72 -17 -79 -28 -165 -29 -223 -1 -27 -5 -49 -11 -49 -5 -1 -21 -2 -35 -3 -14
0 -24 -5 -24 -11 6 -37 16 -169 17 -215 l2 -55 -253 0 c-260 0 -266 1 -271 38
-1 4 -1 8 -2 10 0 1 -2 11 -4 22 -1 11 -5 32 -9 48 -3 15 -8 39 -11 55 -3 15
-11 45 -17 67 -5 22 -12 49 -15 60 -7 34 -13 59 -17 80 -4 19 -24 104 -31 135
-13 51 -37 158 -40 175 -3 17 -25 108 -41 170 -3 11 -6 27 -8 35 -3 13 -51 15
-355 18 l-352 2 3 -141 3 -141 242 0 243 0 9 -36 c6 -20 12 -50 15 -67 2 -16
5 -30 6 -30 1 0 3 -7 5 -16 1 -10 11 -50 20 -90 9 -41 19 -83 21 -94 2 -11 11
-51 19 -90 9 -38 18 -81 21 -95 3 -14 9 -42 15 -63 5 -20 8 -41 5 -45 -2 -4
-144 -7 -315 -7 l-311 1 0 -142 0 -142 30 3 c17 1 32 0 34 -4 4 -7 12 -89 21
-216 4 -44 8 -102 11 -130 5 -69 13 -168 19 -240 2 -33 6 -89 9 -125 3 -36 8
-101 11 -145 5 -94 13 -195 21 -284 3 -35 8 -94 10 -130 2 -36 6 -84 8 -106 2
-22 7 -80 11 -130 4 -49 8 -106 10 -125 8 -95 18 -248 18 -267 -1 -13 2 -23 6
-23 3 0 6 -30 6 -68 -1 -37 1 -77 3 -89 l4 -23 539 0 c297 0 539 3 540 8 0 4
2 18 4 32 4 33 18 222 21 285 1 28 3 50 4 50 1 0 3 27 5 60 2 33 7 91 10 128
3 38 8 98 11 135 2 37 7 92 9 122 3 30 8 87 10 125 3 39 7 97 10 130 10 113
14 170 20 260 6 99 12 175 21 275 3 36 7 92 9 125 14 212 23 296 30 304 3 2 5
-11 6 -30 1 -19 2 -45 4 -59 2 -14 6 -50 9 -80 8 -83 16 -151 23 -195 3 -22 7
-60 9 -85 2 -25 4 -45 5 -45 1 0 2 -13 4 -30 4 -47 16 -147 21 -179 3 -16 7
-52 9 -80 3 -28 7 -67 10 -86 3 -19 8 -60 10 -90 4 -49 7 -75 21 -170 2 -14 6
-54 9 -90 3 -36 7 -76 10 -90 5 -31 15 -119 21 -173 2 -23 6 -58 8 -77 2 -19
7 -62 11 -95 3 -33 8 -78 11 -100 8 -57 11 -82 18 -150 3 -33 9 -77 12 -98 l6
-37 1025 2 c980 3 1026 4 1029 21 1 10 5 46 9 80 3 34 8 75 10 91 2 16 6 57 9
90 4 34 8 71 10 81 2 11 7 47 10 80 4 33 9 76 11 95 3 19 7 57 10 84 2 26 6
65 9 85 5 35 16 132 21 181 6 58 17 157 20 180 4 25 13 104 21 170 2 19 6 55
9 80 3 25 8 70 11 100 7 65 9 86 19 165 9 71 12 102 20 175 4 30 8 69 10 85 2
17 7 57 10 90 3 33 8 76 11 95 3 19 7 58 10 85 3 28 7 61 9 75 2 14 7 57 11
95 3 39 8 78 10 88 4 23 17 147 17 167 0 8 2 20 6 25 3 6 6 30 6 55 0 42 -2
45 -27 45 -14 0 -29 3 -33 7 -4 3 -8 38 -10 77 -2 39 -6 74 -9 80 -3 5 9 28
28 50 57 68 69 141 37 224 -21 55 -99 115 -157 119 -38 3 -52 44 -24 70 37 35
61 95 59 151 -6 157 -162 252 -299 183 -62 -31 -77 -20 -60 43 19 73 -10 166
-66 211 -85 68 -214 62 -283 -13 l-23 -25 -59 21 c-43 15 -59 26 -59 39 0 26
-34 89 -59 110 -46 38 -73 50 -128 53 -88 6 -161 -33 -198 -105 -9 -17 -19
-30 -23 -31 -73 -10 -90 -8 -96 14 -10 40 -81 105 -125 115 -65 14 -111 10
-158 -14z"/>
</g>
</svg>
